<?xml version="1.0" encoding="UTF-8" standalone="no"?>
<!DOCTYPE svg PUBLIC "-//W3C//DTD SVG 1.1//EN"
 "http://www.w3.org/Graphics/SVG/1.1/DTD/svg11.dtd">
<!-- Generated by graphviz version 13.1.2 (20250808.2320)
 -->
<!-- Pages: 1 -->
<svg width="306pt" height="1484pt"
 viewBox="0.00 0.00 306.00 1484.00" xmlns="http://www.w3.org/2000/svg" xmlns:xlink="http://www.w3.org/1999/xlink">
<g id="graph0" class="graph" transform="scale(1 1) rotate(0) translate(4 1480)">
<!-- DR02_1 -->
<g id="node1" class="node">
<title>DR02_1</title>
<ellipse fill="none" stroke="#00bbf9" cx="72.34" cy="-1458" rx="67.73" ry="18"/>
<text xml:space="preserve" text-anchor="middle" x="72.34" y="-1452.95" font-family="Times New Roman,serif" font-size="14.00" fill="white">Adelante H1P1</text>
</g>
<!-- DR02_2 -->
<g id="node2" class="node">
<title>DR02_2</title>
<ellipse fill="none" stroke="#00bbf9" cx="72.34" cy="-1386" rx="32.93" ry="18"/>
<text xml:space="preserve" text-anchor="middle" x="72.34" y="-1380.95" font-family="Times New Roman,serif" font-size="14.00" fill="white">Regar</text>
</g>
<!-- DR02_1&#45;&gt;DR02_2 -->
<g id="edge1" class="edge">
<title>DR02_1&#45;&gt;DR02_2</title>
<path fill="none" stroke="#00bbf9" d="M72.34,-1439.7C72.34,-1432.41 72.34,-1423.73 72.34,-1415.54"/>
<polygon fill="#00bbf9" stroke="#00bbf9" points="75.84,-1415.62 72.34,-1405.62 68.84,-1415.62 75.84,-1415.62"/>
</g>
<!-- DR02_3 -->
<g id="node3" class="node">
<title>DR02_3</title>
<ellipse fill="none" stroke="#00bbf9" cx="72.34" cy="-1314" rx="67.73" ry="18"/>
<text xml:space="preserve" text-anchor="middle" x="72.34" y="-1308.95" font-family="Times New Roman,serif" font-size="14.00" fill="white">Adelante H1P2</text>
</g>
<!-- DR02_2&#45;&gt;DR02_3 -->
<g id="edge2" class="edge">
<title>DR02_2&#45;&gt;DR02_3</title>
<path fill="none" stroke="#00bbf9" d="M72.34,-1367.7C72.34,-1360.41 72.34,-1351.73 72.34,-1343.54"/>
<polygon fill="#00bbf9" stroke="#00bbf9" points="75.84,-1343.62 72.34,-1333.62 68.84,-1343.62 75.84,-1343.62"/>
</g>
<!-- DR02_4 -->
<g id="node4" class="node">
<title>DR02_4</title>
<ellipse fill="none" stroke="#00bbf9" cx="72.34" cy="-1242" rx="32.93" ry="18"/>
<text xml:space="preserve" text-anchor="middle" x="72.34" y="-1236.95" font-family="Times New Roman,serif" font-size="14.00" fill="white">Regar</text>
</g>
<!-- DR02_3&#45;&gt;DR02_4 -->
<g id="edge3" class="edge">
<title>DR02_3&#45;&gt;DR02_4</title>
<path fill="none" stroke="#00bbf9" d="M72.34,-1295.7C72.34,-1288.41 72.34,-1279.73 72.34,-1271.54"/>
<polygon fill="#00bbf9" stroke="#00bbf9" points="75.84,-1271.62 72.34,-1261.62 68.84,-1271.62 75.84,-1271.62"/>
</g>
<!-- DR02_5 -->
<g id="node5" class="node">
<title>DR02_5</title>
<ellipse fill="none" stroke="#00bbf9" cx="72.34" cy="-1170" rx="67.73" ry="18"/>
<text xml:space="preserve" text-anchor="middle" x="72.34" y="-1164.95" font-family="Times New Roman,serif" font-size="14.00" fill="white">Adelante H1P3</text>
</g>
<!-- DR02_4&#45;&gt;DR02_5 -->
<g id="edge4" class="edge">
<title>DR02_4&#45;&gt;DR02_5</title>
<path fill="none" stroke="#00bbf9" d="M72.34,-1223.7C72.34,-1216.41 72.34,-1207.73 72.34,-1199.54"/>
<polygon fill="#00bbf9" stroke="#00bbf9" points="75.84,-1199.62 72.34,-1189.62 68.84,-1199.62 75.84,-1199.62"/>
</g>
<!-- DR02_6 -->
<g id="node6" class="node">
<title>DR02_6</title>
<ellipse fill="none" stroke="#00bbf9" cx="72.34" cy="-1098" rx="32.93" ry="18"/>
<text xml:space="preserve" text-anchor="middle" x="72.34" y="-1092.95" font-family="Times New Roman,serif" font-size="14.00" fill="white">Regar</text>
</g>
<!-- DR02_5&#45;&gt;DR02_6 -->
<g id="edge5" class="edge">
<title>DR02_5&#45;&gt;DR02_6</title>
<path fill="none" stroke="#00bbf9" d="M72.34,-1151.7C72.34,-1144.41 72.34,-1135.73 72.34,-1127.54"/>
<polygon fill="#00bbf9" stroke="#00bbf9" points="75.84,-1127.62 72.34,-1117.62 68.84,-1127.62 75.84,-1127.62"/>
</g>
<!-- DR02_7 -->
<g id="node7" class="node">
<title>DR02_7</title>
<ellipse fill="none" stroke="#00bbf9" cx="72.34" cy="-1026" rx="67.73" ry="18"/>
<text xml:space="preserve" text-anchor="middle" x="72.34" y="-1020.95" font-family="Times New Roman,serif" font-size="14.00" fill="white">Adelante H1P4</text>
</g>
<!-- DR02_6&#45;&gt;DR02_7 -->
<g id="edge6" class="edge">
<title>DR02_6&#45;&gt;DR02_7</title>
<path fill="none" stroke="#00bbf9" d="M72.34,-1079.7C72.34,-1072.41 72.34,-1063.73 72.34,-1055.54"/>
<polygon fill="#00bbf9" stroke="#00bbf9" points="75.84,-1055.62 72.34,-1045.62 68.84,-1055.62 75.84,-1055.62"/>
</g>
<!-- DR02_8 -->
<g id="node8" class="node">
<title>DR02_8</title>
<ellipse fill="none" stroke="#00bbf9" cx="72.34" cy="-954" rx="32.93" ry="18"/>
<text xml:space="preserve" text-anchor="middle" x="72.34" y="-948.95" font-family="Times New Roman,serif" font-size="14.00" fill="white">Regar</text>
</g>
<!-- DR02_7&#45;&gt;DR02_8 -->
<g id="edge7" class="edge">
<title>DR02_7&#45;&gt;DR02_8</title>
<path fill="none" stroke="#00bbf9" d="M72.34,-1007.7C72.34,-1000.41 72.34,-991.73 72.34,-983.54"/>
<polygon fill="#00bbf9" stroke="#00bbf9" points="75.84,-983.62 72.34,-973.62 68.84,-983.62 75.84,-983.62"/>
</g>
<!-- DR02_9 -->
<g id="node9" class="node">
<title>DR02_9</title>
<ellipse fill="none" stroke="#00bbf9" cx="72.34" cy="-882" rx="67.73" ry="18"/>
<text xml:space="preserve" text-anchor="middle" x="72.34" y="-876.95" font-family="Times New Roman,serif" font-size="14.00" fill="white">Adelante H1P5</text>
</g>
<!-- DR02_8&#45;&gt;DR02_9 -->
<g id="edge8" class="edge">
<title>DR02_8&#45;&gt;DR02_9</title>
<path fill="none" stroke="#00bbf9" d="M72.34,-935.7C72.34,-928.41 72.34,-919.73 72.34,-911.54"/>
<polygon fill="#00bbf9" stroke="#00bbf9" points="75.84,-911.62 72.34,-901.62 68.84,-911.62 75.84,-911.62"/>
</g>
<!-- DR02_10 -->
<g id="node10" class="node">
<title>DR02_10</title>
<ellipse fill="none" stroke="#00bbf9" cx="72.34" cy="-810" rx="32.93" ry="18"/>
<text xml:space="preserve" text-anchor="middle" x="72.34" y="-804.95" font-family="Times New Roman,serif" font-size="14.00" fill="white">Regar</text>
</g>
<!-- DR02_9&#45;&gt;DR02_10 -->
<g id="edge9" class="edge">
<title>DR02_9&#45;&gt;DR02_10</title>
<path fill="none" stroke="#00bbf9" d="M72.34,-863.7C72.34,-856.41 72.34,-847.73 72.34,-839.54"/>
<polygon fill="#00bbf9" stroke="#00bbf9" points="75.84,-839.62 72.34,-829.62 68.84,-839.62 75.84,-839.62"/>
</g>
<!-- DR02_11 -->
<g id="node11" class="node">
<title>DR02_11</title>
<ellipse fill="none" stroke="#00bbf9" cx="72.34" cy="-738" rx="67.73" ry="18"/>
<text xml:space="preserve" text-anchor="middle" x="72.34" y="-732.95" font-family="Times New Roman,serif" font-size="14.00" fill="white">Adelante H1P6</text>
</g>
<!-- DR02_10&#45;&gt;DR02_11 -->
<g id="edge10" class="edge">
<title>DR02_10&#45;&gt;DR02_11</title>
<path fill="none" stroke="#00bbf9" d="M72.34,-791.7C72.34,-784.41 72.34,-775.73 72.34,-767.54"/>
<polygon fill="#00bbf9" stroke="#00bbf9" points="75.84,-767.62 72.34,-757.62 68.84,-767.62 75.84,-767.62"/>
</g>
<!-- DR02_12 -->
<g id="node12" class="node">
<title>DR02_12</title>
<ellipse fill="none" stroke="#00bbf9" cx="72.34" cy="-666" rx="32.93" ry="18"/>
<text xml:space="preserve" text-anchor="middle" x="72.34" y="-660.95" font-family="Times New Roman,serif" font-size="14.00" fill="white">Regar</text>
</g>
<!-- DR02_11&#45;&gt;DR02_12 -->
<g id="edge11" class="edge">
<title>DR02_11&#45;&gt;DR02_12</title>
<path fill="none" stroke="#00bbf9" d="M72.34,-719.7C72.34,-712.41 72.34,-703.73 72.34,-695.54"/>
<polygon fill="#00bbf9" stroke="#00bbf9" points="75.84,-695.62 72.34,-685.62 68.84,-695.62 75.84,-695.62"/>
</g>
<!-- DR02_13 -->
<g id="node13" class="node">
<title>DR02_13</title>
<ellipse fill="none" stroke="#00bbf9" cx="72.34" cy="-594" rx="67.73" ry="18"/>
<text xml:space="preserve" text-anchor="middle" x="72.34" y="-588.95" font-family="Times New Roman,serif" font-size="14.00" fill="white">Adelante H1P7</text>
</g>
<!-- DR02_12&#45;&gt;DR02_13 -->
<g id="edge12" class="edge">
<title>DR02_12&#45;&gt;DR02_13</title>
<path fill="none" stroke="#00bbf9" d="M72.34,-647.7C72.34,-640.41 72.34,-631.73 72.34,-623.54"/>
<polygon fill="#00bbf9" stroke="#00bbf9" points="75.84,-623.62 72.34,-613.62 68.84,-623.62 75.84,-623.62"/>
</g>
<!-- DR02_14 -->
<g id="node14" class="node">
<title>DR02_14</title>
<ellipse fill="none" stroke="#00bbf9" cx="72.34" cy="-522" rx="32.93" ry="18"/>
<text xml:space="preserve" text-anchor="middle" x="72.34" y="-516.95" font-family="Times New Roman,serif" font-size="14.00" fill="white">Regar</text>
</g>
<!-- DR02_13&#45;&gt;DR02_14 -->
<g id="edge13" class="edge">
<title>DR02_13&#45;&gt;DR02_14</title>
<path fill="none" stroke="#00bbf9" d="M72.34,-575.7C72.34,-568.41 72.34,-559.73 72.34,-551.54"/>
<polygon fill="#00bbf9" stroke="#00bbf9" points="75.84,-551.62 72.34,-541.62 68.84,-551.62 75.84,-551.62"/>
</g>
<!-- DR02_15 -->
<g id="node15" class="node">
<title>DR02_15</title>
<ellipse fill="none" stroke="#00bbf9" cx="72.34" cy="-450" rx="67.73" ry="18"/>
<text xml:space="preserve" text-anchor="middle" x="72.34" y="-444.95" font-family="Times New Roman,serif" font-size="14.00" fill="white">Adelante H1P8</text>
</g>
<!-- DR02_14&#45;&gt;DR02_15 -->
<g id="edge14" class="edge">
<title>DR02_14&#45;&gt;DR02_15</title>
<path fill="none" stroke="#00bbf9" d="M72.34,-503.7C72.34,-496.41 72.34,-487.73 72.34,-479.54"/>
<polygon fill="#00bbf9" stroke="#00bbf9" points="75.84,-479.62 72.34,-469.62 68.84,-479.62 75.84,-479.62"/>
</g>
<!-- DR02_16 -->
<g id="node16" class="node">
<title>DR02_16</title>
<ellipse fill="none" stroke="#00bbf9" cx="72.34" cy="-378" rx="32.93" ry="18"/>
<text xml:space="preserve" text-anchor="middle" x="72.34" y="-372.95" font-family="Times New Roman,serif" font-size="14.00" fill="white">Regar</text>
</g>
<!-- DR02_15&#45;&gt;DR02_16 -->
<g id="edge15" class="edge">
<title>DR02_15&#45;&gt;DR02_16</title>
<path fill="none" stroke="#00bbf9" d="M72.34,-431.7C72.34,-424.41 72.34,-415.73 72.34,-407.54"/>
<polygon fill="#00bbf9" stroke="#00bbf9" points="75.84,-407.62 72.34,-397.62 68.84,-407.62 75.84,-407.62"/>
</g>
<!-- DR02_17 -->
<g id="node17" class="node">
<title>DR02_17</title>
<ellipse fill="none" stroke="#00bbf9" cx="72.34" cy="-306" rx="67.73" ry="18"/>
<text xml:space="preserve" text-anchor="middle" x="72.34" y="-300.95" font-family="Times New Roman,serif" font-size="14.00" fill="white">Adelante H1P9</text>
</g>
<!-- DR02_16&#45;&gt;DR02_17 -->
<g id="edge16" class="edge">
<title>DR02_16&#45;&gt;DR02_17</title>
<path fill="none" stroke="#00bbf9" d="M72.34,-359.7C72.34,-352.41 72.34,-343.73 72.34,-335.54"/>
<polygon fill="#00bbf9" stroke="#00bbf9" points="75.84,-335.62 72.34,-325.62 68.84,-335.62 75.84,-335.62"/>
</g>
<!-- DR02_18 -->
<g id="node18" class="node">
<title>DR02_18</title>
<ellipse fill="none" stroke="#00bbf9" cx="72.34" cy="-234" rx="32.93" ry="18"/>
<text xml:space="preserve" text-anchor="middle" x="72.34" y="-228.95" font-family="Times New Roman,serif" font-size="14.00" fill="white">Regar</text>
</g>
<!-- DR02_17&#45;&gt;DR02_18 -->
<g id="edge17" class="edge">
<title>DR02_17&#45;&gt;DR02_18</title>
<path fill="none" stroke="#00bbf9" d="M72.34,-287.7C72.34,-280.41 72.34,-271.73 72.34,-263.54"/>
<polygon fill="#00bbf9" stroke="#00bbf9" points="75.84,-263.62 72.34,-253.62 68.84,-263.62 75.84,-263.62"/>
</g>
<!-- DR02_19 -->
<g id="node19" class="node">
<title>DR02_19</title>
<ellipse fill="none" stroke="#00bbf9" cx="72.34" cy="-162" rx="72.34" ry="18"/>
<text xml:space="preserve" text-anchor="middle" x="72.34" y="-156.95" font-family="Times New Roman,serif" font-size="14.00" fill="white">Adelante H1P10</text>
</g>
<!-- DR02_18&#45;&gt;DR02_19 -->
<g id="edge18" class="edge">
<title>DR02_18&#45;&gt;DR02_19</title>
<path fill="none" stroke="#00bbf9" d="M72.34,-215.7C72.34,-208.41 72.34,-199.73 72.34,-191.54"/>
<polygon fill="#00bbf9" stroke="#00bbf9" points="75.84,-191.62 72.34,-181.62 68.84,-191.62 75.84,-191.62"/>
</g>
<!-- DR02_20 -->
<g id="node20" class="node">
<title>DR02_20</title>
<ellipse fill="none" stroke="#00bbf9" cx="72.34" cy="-90" rx="32.93" ry="18"/>
<text xml:space="preserve" text-anchor="middle" x="72.34" y="-84.95" font-family="Times New Roman,serif" font-size="14.00" fill="white">Regar</text>
</g>
<!-- DR02_19&#45;&gt;DR02_20 -->
<g id="edge19" class="edge">
<title>DR02_19&#45;&gt;DR02_20</title>
<path fill="none" stroke="#00bbf9" d="M72.34,-143.7C72.34,-136.41 72.34,-127.73 72.34,-119.54"/>
<polygon fill="#00bbf9" stroke="#00bbf9" points="75.84,-119.62 72.34,-109.62 68.84,-119.62 75.84,-119.62"/>
</g>
<!-- DR04_1 -->
<g id="node21" class="node">
<title>DR04_1</title>
<ellipse fill="none" stroke="#00bbf9" cx="225.34" cy="-1458" rx="67.73" ry="18"/>
<text xml:space="preserve" text-anchor="middle" x="225.34" y="-1452.95" font-family="Times New Roman,serif" font-size="14.00" fill="white">Adelante H2P1</text>
</g>
<!-- DR04_2 -->
<g id="node22" class="node">
<title>DR04_2</title>
<ellipse fill="none" stroke="#00bbf9" cx="225.34" cy="-1386" rx="39.07" ry="18"/>
<text xml:space="preserve" text-anchor="middle" x="225.34" y="-1380.95" font-family="Times New Roman,serif" font-size="14.00" fill="white">Esperar</text>
</g>
<!-- DR04_1&#45;&gt;DR04_2 -->
<g id="edge20" class="edge">
<title>DR04_1&#45;&gt;DR04_2</title>
<path fill="none" stroke="#00bbf9" d="M225.34,-1439.7C225.34,-1432.41 225.34,-1423.73 225.34,-1415.54"/>
<polygon fill="#00bbf9" stroke="#00bbf9" points="228.84,-1415.62 225.34,-1405.62 221.84,-1415.62 228.84,-1415.62"/>
</g>
<!-- DR04_3 -->
<g id="node23" class="node">
<title>DR04_3</title>
<ellipse fill="none" stroke="#00bbf9" cx="225.34" cy="-1314" rx="32.93" ry="18"/>
<text xml:space="preserve" text-anchor="middle" x="225.34" y="-1308.95" font-family="Times New Roman,serif" font-size="14.00" fill="white">Regar</text>
</g>
<!-- DR04_2&#45;&gt;DR04_3 -->
<g id="edge21" class="edge">
<title>DR04_2&#45;&gt;DR04_3</title>
<path fill="none" stroke="#00bbf9" d="M225.34,-1367.7C225.34,-1360.41 225.34,-1351.73 225.34,-1343.54"/>
<polygon fill="#00bbf9" stroke="#00bbf9" points="228.84,-1343.62 225.34,-1333.62 221.84,-1343.62 228.84,-1343.62"/>
</g>
<!-- DR04_4 -->
<g id="node24" class="node">
<title>DR04_4</title>
<ellipse fill="none" stroke="#00bbf9" cx="225.34" cy="-1242" rx="67.73" ry="18"/>
<text xml:space="preserve" text-anchor="middle" x="225.34" y="-1236.95" font-family="Times New Roman,serif" font-size="14.00" fill="white">Adelante H2P2</text>
</g>
<!-- DR04_3&#45;&gt;DR04_4 -->
<g id="edge22" class="edge">
<title>DR04_3&#45;&gt;DR04_4</title>
<path fill="none" stroke="#00bbf9" d="M225.34,-1295.7C225.34,-1288.41 225.34,-1279.73 225.34,-1271.54"/>
<polygon fill="#00bbf9" stroke="#00bbf9" points="228.84,-1271.62 225.34,-1261.62 221.84,-1271.62 228.84,-1271.62"/>
</g>
<!-- DR04_5 -->
<g id="node25" class="node">
<title>DR04_5</title>
<ellipse fill="none" stroke="#00bbf9" cx="225.34" cy="-1170" rx="32.93" ry="18"/>
<text xml:space="preserve" text-anchor="middle" x="225.34" y="-1164.95" font-family="Times New Roman,serif" font-size="14.00" fill="white">Regar</text>
</g>
<!-- DR04_4&#45;&gt;DR04_5 -->
<g id="edge23" class="edge">
<title>DR04_4&#45;&gt;DR04_5</title>
<path fill="none" stroke="#00bbf9" d="M225.34,-1223.7C225.34,-1216.41 225.34,-1207.73 225.34,-1199.54"/>
<polygon fill="#00bbf9" stroke="#00bbf9" points="228.84,-1199.62 225.34,-1189.62 221.84,-1199.62 228.84,-1199.62"/>
</g>
<!-- DR04_6 -->
<g id="node26" class="node">
<title>DR04_6</title>
<ellipse fill="none" stroke="#00bbf9" cx="225.34" cy="-1098" rx="67.73" ry="18"/>
<text xml:space="preserve" text-anchor="middle" x="225.34" y="-1092.95" font-family="Times New Roman,serif" font-size="14.00" fill="white">Adelante H2P3</text>
</g>
<!-- DR04_5&#45;&gt;DR04_6 -->
<g id="edge24" class="edge">
<title>DR04_5&#45;&gt;DR04_6</title>
<path fill="none" stroke="#00bbf9" d="M225.34,-1151.7C225.34,-1144.41 225.34,-1135.73 225.34,-1127.54"/>
<polygon fill="#00bbf9" stroke="#00bbf9" points="228.84,-1127.62 225.34,-1117.62 221.84,-1127.62 228.84,-1127.62"/>
</g>
<!-- DR04_7 -->
<g id="node27" class="node">
<title>DR04_7</title>
<ellipse fill="none" stroke="#00bbf9" cx="225.34" cy="-1026" rx="32.93" ry="18"/>
<text xml:space="preserve" text-anchor="middle" x="225.34" y="-1020.95" font-family="Times New Roman,serif" font-size="14.00" fill="white">Regar</text>
</g>
<!-- DR04_6&#45;&gt;DR04_7 -->
<g id="edge25" class="edge">
<title>DR04_6&#45;&gt;DR04_7</title>
<path fill="none" stroke="#00bbf9" d="M225.34,-1079.7C225.34,-1072.41 225.34,-1063.73 225.34,-1055.54"/>
<polygon fill="#00bbf9" stroke="#00bbf9" points="228.84,-1055.62 225.34,-1045.62 221.84,-1055.62 228.84,-1055.62"/>
</g>
<!-- DR04_8 -->
<g id="node28" class="node">
<title>DR04_8</title>
<ellipse fill="none" stroke="#00bbf9" cx="225.34" cy="-954" rx="67.73" ry="18"/>
<text xml:space="preserve" text-anchor="middle" x="225.34" y="-948.95" font-family="Times New Roman,serif" font-size="14.00" fill="white">Adelante H2P4</text>
</g>
<!-- DR04_7&#45;&gt;DR04_8 -->
<g id="edge26" class="edge">
<title>DR04_7&#45;&gt;DR04_8</title>
<path fill="none" stroke="#00bbf9" d="M225.34,-1007.7C225.34,-1000.41 225.34,-991.73 225.34,-983.54"/>
<polygon fill="#00bbf9" stroke="#00bbf9" points="228.84,-983.62 225.34,-973.62 221.84,-983.62 228.84,-983.62"/>
</g>
<!-- DR04_9 -->
<g id="node29" class="node">
<title>DR04_9</title>
<ellipse fill="none" stroke="#00bbf9" cx="225.34" cy="-882" rx="32.93" ry="18"/>
<text xml:space="preserve" text-anchor="middle" x="225.34" y="-876.95" font-family="Times New Roman,serif" font-size="14.00" fill="white">Regar</text>
</g>
<!-- DR04_8&#45;&gt;DR04_9 -->
<g id="edge27" class="edge">
<title>DR04_8&#45;&gt;DR04_9</title>
<path fill="none" stroke="#00bbf9" d="M225.34,-935.7C225.34,-928.41 225.34,-919.73 225.34,-911.54"/>
<polygon fill="#00bbf9" stroke="#00bbf9" points="228.84,-911.62 225.34,-901.62 221.84,-911.62 228.84,-911.62"/>
</g>
<!-- DR04_10 -->
<g id="node30" class="node">
<title>DR04_10</title>
<ellipse fill="none" stroke="#00bbf9" cx="225.34" cy="-810" rx="67.73" ry="18"/>
<text xml:space="preserve" text-anchor="middle" x="225.34" y="-804.95" font-family="Times New Roman,serif" font-size="14.00" fill="white">Adelante H2P5</text>
</g>
<!-- DR04_9&#45;&gt;DR04_10 -->
<g id="edge28" class="edge">
<title>DR04_9&#45;&gt;DR04_10</title>
<path fill="none" stroke="#00bbf9" d="M225.34,-863.7C225.34,-856.41 225.34,-847.73 225.34,-839.54"/>
<polygon fill="#00bbf9" stroke="#00bbf9" points="228.84,-839.62 225.34,-829.62 221.84,-839.62 228.84,-839.62"/>
</g>
<!-- DR04_11 -->
<g id="node31" class="node">
<title>DR04_11</title>
<ellipse fill="none" stroke="#00bbf9" cx="225.34" cy="-738" rx="32.93" ry="18"/>
<text xml:space="preserve" text-anchor="middle" x="225.34" y="-732.95" font-family="Times New Roman,serif" font-size="14.00" fill="white">Regar</text>
</g>
<!-- DR04_10&#45;&gt;DR04_11 -->
<g id="edge29" class="edge">
<title>DR04_10&#45;&gt;DR04_11</title>
<path fill="none" stroke="#00bbf9" d="M225.34,-791.7C225.34,-784.41 225.34,-775.73 225.34,-767.54"/>
<polygon fill="#00bbf9" stroke="#00bbf9" points="228.84,-767.62 225.34,-757.62 221.84,-767.62 228.84,-767.62"/>
</g>
<!-- DR04_12 -->
<g id="node32" class="node">
<title>DR04_12</title>
<ellipse fill="none" stroke="#00bbf9" cx="225.34" cy="-666" rx="67.73" ry="18"/>
<text xml:space="preserve" text-anchor="middle" x="225.34" y="-660.95" font-family="Times New Roman,serif" font-size="14.00" fill="white">Adelante H2P6</text>
</g>
<!-- DR04_11&#45;&gt;DR04_12 -->
<g id="edge30" class="edge">
<title>DR04_11&#45;&gt;DR04_12</title>
<path fill="none" stroke="#00bbf9" d="M225.34,-719.7C225.34,-712.41 225.34,-703.73 225.34,-695.54"/>
<polygon fill="#00bbf9" stroke="#00bbf9" points="228.84,-695.62 225.34,-685.62 221.84,-695.62 228.84,-695.62"/>
</g>
<!-- DR04_13 -->
<g id="node33" class="node">
<title>DR04_13</title>
<ellipse fill="none" stroke="#00bbf9" cx="225.34" cy="-594" rx="32.93" ry="18"/>
<text xml:space="preserve" text-anchor="middle" x="225.34" y="-588.95" font-family="Times New Roman,serif" font-size="14.00" fill="white">Regar</text>
</g>
<!-- DR04_12&#45;&gt;DR04_13 -->
<g id="edge31" class="edge">
<title>DR04_12&#45;&gt;DR04_13</title>
<path fill="none" stroke="#00bbf9" d="M225.34,-647.7C225.34,-640.41 225.34,-631.73 225.34,-623.54"/>
<polygon fill="#00bbf9" stroke="#00bbf9" points="228.84,-623.62 225.34,-613.62 221.84,-623.62 228.84,-623.62"/>
</g>
<!-- DR04_14 -->
<g id="node34" class="node">
<title>DR04_14</title>
<ellipse fill="none" stroke="#00bbf9" cx="225.34" cy="-522" rx="67.73" ry="18"/>
<text xml:space="preserve" text-anchor="middle" x="225.34" y="-516.95" font-family="Times New Roman,serif" font-size="14.00" fill="white">Adelante H2P7</text>
</g>
<!-- DR04_13&#45;&gt;DR04_14 -->
<g id="edge32" class="edge">
<title>DR04_13&#45;&gt;DR04_14</title>
<path fill="none" stroke="#00bbf9" d="M225.34,-575.7C225.34,-568.41 225.34,-559.73 225.34,-551.54"/>
<polygon fill="#00bbf9" stroke="#00bbf9" points="228.84,-551.62 225.34,-541.62 221.84,-551.62 228.84,-551.62"/>
</g>
<!-- DR04_15 -->
<g id="node35" class="node">
<title>DR04_15</title>
<ellipse fill="none" stroke="#00bbf9" cx="225.34" cy="-450" rx="32.93" ry="18"/>
<text xml:space="preserve" text-anchor="middle" x="225.34" y="-444.95" font-family="Times New Roman,serif" font-size="14.00" fill="white">Regar</text>
</g>
<!-- DR04_14&#45;&gt;DR04_15 -->
<g id="edge33" class="edge">
<title>DR04_14&#45;&gt;DR04_15</title>
<path fill="none" stroke="#00bbf9" d="M225.34,-503.7C225.34,-496.41 225.34,-487.73 225.34,-479.54"/>
<polygon fill="#00bbf9" stroke="#00bbf9" points="228.84,-479.62 225.34,-469.62 221.84,-479.62 228.84,-479.62"/>
</g>
<!-- DR04_16 -->
<g id="node36" class="node">
<title>DR04_16</title>
<ellipse fill="none" stroke="#00bbf9" cx="225.34" cy="-378" rx="67.73" ry="18"/>
<text xml:space="preserve" text-anchor="middle" x="225.34" y="-372.95" font-family="Times New Roman,serif" font-size="14.00" fill="white">Adelante H2P8</text>
</g>
<!-- DR04_15&#45;&gt;DR04_16 -->
<g id="edge34" class="edge">
<title>DR04_15&#45;&gt;DR04_16</title>
<path fill="none" stroke="#00bbf9" d="M225.34,-431.7C225.34,-424.41 225.34,-415.73 225.34,-407.54"/>
<polygon fill="#00bbf9" stroke="#00bbf9" points="228.84,-407.62 225.34,-397.62 221.84,-407.62 228.84,-407.62"/>
</g>
<!-- DR04_17 -->
<g id="node37" class="node">
<title>DR04_17</title>
<ellipse fill="none" stroke="#00bbf9" cx="225.34" cy="-306" rx="32.93" ry="18"/>
<text xml:space="preserve" text-anchor="middle" x="225.34" y="-300.95" font-family="Times New Roman,serif" font-size="14.00" fill="white">Regar</text>
</g>
<!-- DR04_16&#45;&gt;DR04_17 -->
<g id="edge35" class="edge">
<title>DR04_16&#45;&gt;DR04_17</title>
<path fill="none" stroke="#00bbf9" d="M225.34,-359.7C225.34,-352.41 225.34,-343.73 225.34,-335.54"/>
<polygon fill="#00bbf9" stroke="#00bbf9" points="228.84,-335.62 225.34,-325.62 221.84,-335.62 228.84,-335.62"/>
</g>
<!-- DR04_18 -->
<g id="node38" class="node">
<title>DR04_18</title>
<ellipse fill="none" stroke="#00bbf9" cx="225.34" cy="-234" rx="67.73" ry="18"/>
<text xml:space="preserve" text-anchor="middle" x="225.34" y="-228.95" font-family="Times New Roman,serif" font-size="14.00" fill="white">Adelante H2P9</text>
</g>
<!-- DR04_17&#45;&gt;DR04_18 -->
<g id="edge36" class="edge">
<title>DR04_17&#45;&gt;DR04_18</title>
<path fill="none" stroke="#00bbf9" d="M225.34,-287.7C225.34,-280.41 225.34,-271.73 225.34,-263.54"/>
<polygon fill="#00bbf9" stroke="#00bbf9" points="228.84,-263.62 225.34,-253.62 221.84,-263.62 228.84,-263.62"/>
</g>
<!-- DR04_19 -->
<g id="node39" class="node">
<title>DR04_19</title>
<ellipse fill="none" stroke="#00bbf9" cx="225.34" cy="-162" rx="32.93" ry="18"/>
<text xml:space="preserve" text-anchor="middle" x="225.34" y="-156.95" font-family="Times New Roman,serif" font-size="14.00" fill="white">Regar</text>
</g>
<!-- DR04_18&#45;&gt;DR04_19 -->
<g id="edge37" class="edge">
<title>DR04_18&#45;&gt;DR04_19</title>
<path fill="none" stroke="#00bbf9" d="M225.34,-215.7C225.34,-208.41 225.34,-199.73 225.34,-191.54"/>
<polygon fill="#00bbf9" stroke="#00bbf9" points="228.84,-191.62 225.34,-181.62 221.84,-191.62 228.84,-191.62"/>
</g>
<!-- DR04_20 -->
<g id="node40" class="node">
<title>DR04_20</title>
<ellipse fill="none" stroke="#00bbf9" cx="225.34" cy="-90" rx="72.34" ry="18"/>
<text xml:space="preserve" text-anchor="middle" x="225.34" y="-84.95" font-family="Times New Roman,serif" font-size="14.00" fill="white">Adelante H2P10</text>
</g>
<!-- DR04_19&#45;&gt;DR04_20 -->
<g id="edge38" class="edge">
<title>DR04_19&#45;&gt;DR04_20</title>
<path fill="none" stroke="#00bbf9" d="M225.34,-143.7C225.34,-136.41 225.34,-127.73 225.34,-119.54"/>
<polygon fill="#00bbf9" stroke="#00bbf9" points="228.84,-119.62 225.34,-109.62 221.84,-119.62 228.84,-119.62"/>
</g>
<!-- DR04_21 -->
<g id="node41" class="node">
<title>DR04_21</title>
<ellipse fill="none" stroke="#00bbf9" cx="225.34" cy="-18" rx="32.93" ry="18"/>
<text xml:space="preserve" text-anchor="middle" x="225.34" y="-12.95" font-family="Times New Roman,serif" font-size="14.00" fill="white">Regar</text>
</g>
<!-- DR04_20&#45;&gt;DR04_21 -->
<g id="edge39" class="edge">
<title>DR04_20&#45;&gt;DR04_21</title>
<path fill="none" stroke="#00bbf9" d="M225.34,-71.7C225.34,-64.41 225.34,-55.73 225.34,-47.54"/>
<polygon fill="#00bbf9" stroke="#00bbf9" points="228.84,-47.62 225.34,-37.62 221.84,-47.62 228.84,-47.62"/>
</g>
</g>
</svg>
