<?xml version="1.0" encoding="UTF-8" standalone="no"?>
<!DOCTYPE svg PUBLIC "-//W3C//DTD SVG 1.1//EN"
 "http://www.w3.org/Graphics/SVG/1.1/DTD/svg11.dtd">
<!-- Generated by graphviz version 13.1.2 (20250808.2320)
 -->
<!-- Pages: 1 -->
<svg width="602pt" height="620pt"
 viewBox="0.00 0.00 602.00 620.00" xmlns="http://www.w3.org/2000/svg" xmlns:xlink="http://www.w3.org/1999/xlink">
<g id="graph0" class="graph" transform="scale(1 1) rotate(0) translate(4 616)">
<!-- DR01_1 -->
<g id="node1" class="node">
<title>DR01_1</title>
<ellipse fill="none" stroke="#00bbf9" cx="67.73" cy="-594" rx="67.73" ry="18"/>
<text xml:space="preserve" text-anchor="middle" x="67.73" y="-588.95" font-family="Times New Roman,serif" font-size="14.00" fill="white">Adelante H1P1</text>
</g>
<!-- DR01_2 -->
<g id="node2" class="node">
<title>DR01_2</title>
<ellipse fill="none" stroke="#00bbf9" cx="67.73" cy="-522" rx="67.73" ry="18"/>
<text xml:space="preserve" text-anchor="middle" x="67.73" y="-516.95" font-family="Times New Roman,serif" font-size="14.00" fill="white">Adelante H1P2</text>
</g>
<!-- DR01_1&#45;&gt;DR01_2 -->
<g id="edge1" class="edge">
<title>DR01_1&#45;&gt;DR01_2</title>
<path fill="none" stroke="#00bbf9" d="M67.73,-575.7C67.73,-568.41 67.73,-559.73 67.73,-551.54"/>
<polygon fill="#00bbf9" stroke="#00bbf9" points="71.23,-551.62 67.73,-541.62 64.23,-551.62 71.23,-551.62"/>
</g>
<!-- DR01_3 -->
<g id="node3" class="node">
<title>DR01_3</title>
<ellipse fill="none" stroke="#00bbf9" cx="67.73" cy="-450" rx="32.93" ry="18"/>
<text xml:space="preserve" text-anchor="middle" x="67.73" y="-444.95" font-family="Times New Roman,serif" font-size="14.00" fill="white">Regar</text>
</g>
<!-- DR01_2&#45;&gt;DR01_3 -->
<g id="edge2" class="edge">
<title>DR01_2&#45;&gt;DR01_3</title>
<path fill="none" stroke="#00bbf9" d="M67.73,-503.7C67.73,-496.41 67.73,-487.73 67.73,-479.54"/>
<polygon fill="#00bbf9" stroke="#00bbf9" points="71.23,-479.62 67.73,-469.62 64.23,-479.62 71.23,-479.62"/>
</g>
<!-- DR02_1 -->
<g id="node4" class="node">
<title>DR02_1</title>
<ellipse fill="none" stroke="#00bbf9" cx="220.73" cy="-594" rx="67.73" ry="18"/>
<text xml:space="preserve" text-anchor="middle" x="220.73" y="-588.95" font-family="Times New Roman,serif" font-size="14.00" fill="white">Adelante H2P1</text>
</g>
<!-- DR02_2 -->
<g id="node5" class="node">
<title>DR02_2</title>
<ellipse fill="none" stroke="#00bbf9" cx="220.73" cy="-522" rx="67.73" ry="18"/>
<text xml:space="preserve" text-anchor="middle" x="220.73" y="-516.95" font-family="Times New Roman,serif" font-size="14.00" fill="white">Adelante H2P2</text>
</g>
<!-- DR02_1&#45;&gt;DR02_2 -->
<g id="edge3" class="edge">
<title>DR02_1&#45;&gt;DR02_2</title>
<path fill="none" stroke="#00bbf9" d="M220.73,-575.7C220.73,-568.41 220.73,-559.73 220.73,-551.54"/>
<polygon fill="#00bbf9" stroke="#00bbf9" points="224.23,-551.62 220.73,-541.62 217.23,-551.62 224.23,-551.62"/>
</g>
<!-- DR02_3 -->
<g id="node6" class="node">
<title>DR02_3</title>
<ellipse fill="none" stroke="#00bbf9" cx="220.73" cy="-450" rx="67.73" ry="18"/>
<text xml:space="preserve" text-anchor="middle" x="220.73" y="-444.95" font-family="Times New Roman,serif" font-size="14.00" fill="white">Adelante H2P3</text>
</g>
<!-- DR02_2&#45;&gt;DR02_3 -->
<g id="edge4" class="edge">
<title>DR02_2&#45;&gt;DR02_3</title>
<path fill="none" stroke="#00bbf9" d="M220.73,-503.7C220.73,-496.41 220.73,-487.73 220.73,-479.54"/>
<polygon fill="#00bbf9" stroke="#00bbf9" points="224.23,-479.62 220.73,-469.62 217.23,-479.62 224.23,-479.62"/>
</g>
<!-- DR02_4 -->
<g id="node7" class="node">
<title>DR02_4</title>
<ellipse fill="none" stroke="#00bbf9" cx="220.73" cy="-378" rx="39.07" ry="18"/>
<text xml:space="preserve" text-anchor="middle" x="220.73" y="-372.95" font-family="Times New Roman,serif" font-size="14.00" fill="white">Esperar</text>
</g>
<!-- DR02_3&#45;&gt;DR02_4 -->
<g id="edge5" class="edge">
<title>DR02_3&#45;&gt;DR02_4</title>
<path fill="none" stroke="#00bbf9" d="M220.73,-431.7C220.73,-424.41 220.73,-415.73 220.73,-407.54"/>
<polygon fill="#00bbf9" stroke="#00bbf9" points="224.23,-407.62 220.73,-397.62 217.23,-407.62 224.23,-407.62"/>
</g>
<!-- DR02_5 -->
<g id="node8" class="node">
<title>DR02_5</title>
<ellipse fill="none" stroke="#00bbf9" cx="220.73" cy="-306" rx="32.93" ry="18"/>
<text xml:space="preserve" text-anchor="middle" x="220.73" y="-300.95" font-family="Times New Roman,serif" font-size="14.00" fill="white">Regar</text>
</g>
<!-- DR02_4&#45;&gt;DR02_5 -->
<g id="edge6" class="edge">
<title>DR02_4&#45;&gt;DR02_5</title>
<path fill="none" stroke="#00bbf9" d="M220.73,-359.7C220.73,-352.41 220.73,-343.73 220.73,-335.54"/>
<polygon fill="#00bbf9" stroke="#00bbf9" points="224.23,-335.62 220.73,-325.62 217.23,-335.62 224.23,-335.62"/>
</g>
<!-- DR02_6 -->
<g id="node9" class="node">
<title>DR02_6</title>
<ellipse fill="none" stroke="#00bbf9" cx="220.73" cy="-234" rx="54.42" ry="18"/>
<text xml:space="preserve" text-anchor="middle" x="220.73" y="-228.95" font-family="Times New Roman,serif" font-size="14.00" fill="white">Atras H2P2</text>
</g>
<!-- DR02_5&#45;&gt;DR02_6 -->
<g id="edge7" class="edge">
<title>DR02_5&#45;&gt;DR02_6</title>
<path fill="none" stroke="#00bbf9" d="M220.73,-287.7C220.73,-280.41 220.73,-271.73 220.73,-263.54"/>
<polygon fill="#00bbf9" stroke="#00bbf9" points="224.23,-263.62 220.73,-253.62 217.23,-263.62 224.23,-263.62"/>
</g>
<!-- DR02_7 -->
<g id="node10" class="node">
<title>DR02_7</title>
<ellipse fill="none" stroke="#00bbf9" cx="220.73" cy="-162" rx="54.42" ry="18"/>
<text xml:space="preserve" text-anchor="middle" x="220.73" y="-156.95" font-family="Times New Roman,serif" font-size="14.00" fill="white">Atras H2P1</text>
</g>
<!-- DR02_6&#45;&gt;DR02_7 -->
<g id="edge8" class="edge">
<title>DR02_6&#45;&gt;DR02_7</title>
<path fill="none" stroke="#00bbf9" d="M220.73,-215.7C220.73,-208.41 220.73,-199.73 220.73,-191.54"/>
<polygon fill="#00bbf9" stroke="#00bbf9" points="224.23,-191.62 220.73,-181.62 217.23,-191.62 224.23,-191.62"/>
</g>
<!-- DR02_8 -->
<g id="node11" class="node">
<title>DR02_8</title>
<ellipse fill="none" stroke="#00bbf9" cx="220.73" cy="-90" rx="32.93" ry="18"/>
<text xml:space="preserve" text-anchor="middle" x="220.73" y="-84.95" font-family="Times New Roman,serif" font-size="14.00" fill="white">Regar</text>
</g>
<!-- DR02_7&#45;&gt;DR02_8 -->
<g id="edge9" class="edge">
<title>DR02_7&#45;&gt;DR02_8</title>
<path fill="none" stroke="#00bbf9" d="M220.73,-143.7C220.73,-136.41 220.73,-127.73 220.73,-119.54"/>
<polygon fill="#00bbf9" stroke="#00bbf9" points="224.23,-119.62 220.73,-109.62 217.23,-119.62 224.23,-119.62"/>
</g>
<!-- DR03_1 -->
<g id="node12" class="node">
<title>DR03_1</title>
<ellipse fill="none" stroke="#00bbf9" cx="373.73" cy="-594" rx="67.73" ry="18"/>
<text xml:space="preserve" text-anchor="middle" x="373.73" y="-588.95" font-family="Times New Roman,serif" font-size="14.00" fill="white">Adelante H3P1</text>
</g>
<!-- DR03_2 -->
<g id="node13" class="node">
<title>DR03_2</title>
<ellipse fill="none" stroke="#00bbf9" cx="373.73" cy="-522" rx="67.73" ry="18"/>
<text xml:space="preserve" text-anchor="middle" x="373.73" y="-516.95" font-family="Times New Roman,serif" font-size="14.00" fill="white">Adelante H3P2</text>
</g>
<!-- DR03_1&#45;&gt;DR03_2 -->
<g id="edge10" class="edge">
<title>DR03_1&#45;&gt;DR03_2</title>
<path fill="none" stroke="#00bbf9" d="M373.73,-575.7C373.73,-568.41 373.73,-559.73 373.73,-551.54"/>
<polygon fill="#00bbf9" stroke="#00bbf9" points="377.23,-551.62 373.73,-541.62 370.23,-551.62 377.23,-551.62"/>
</g>
<!-- DR03_3 -->
<g id="node14" class="node">
<title>DR03_3</title>
<ellipse fill="none" stroke="#00bbf9" cx="373.73" cy="-450" rx="67.73" ry="18"/>
<text xml:space="preserve" text-anchor="middle" x="373.73" y="-444.95" font-family="Times New Roman,serif" font-size="14.00" fill="white">Adelante H3P3</text>
</g>
<!-- DR03_2&#45;&gt;DR03_3 -->
<g id="edge11" class="edge">
<title>DR03_2&#45;&gt;DR03_3</title>
<path fill="none" stroke="#00bbf9" d="M373.73,-503.7C373.73,-496.41 373.73,-487.73 373.73,-479.54"/>
<polygon fill="#00bbf9" stroke="#00bbf9" points="377.23,-479.62 373.73,-469.62 370.23,-479.62 377.23,-479.62"/>
</g>
<!-- DR03_4 -->
<g id="node15" class="node">
<title>DR03_4</title>
<ellipse fill="none" stroke="#00bbf9" cx="373.73" cy="-378" rx="39.07" ry="18"/>
<text xml:space="preserve" text-anchor="middle" x="373.73" y="-372.95" font-family="Times New Roman,serif" font-size="14.00" fill="white">Esperar</text>
</g>
<!-- DR03_3&#45;&gt;DR03_4 -->
<g id="edge12" class="edge">
<title>DR03_3&#45;&gt;DR03_4</title>
<path fill="none" stroke="#00bbf9" d="M373.73,-431.7C373.73,-424.41 373.73,-415.73 373.73,-407.54"/>
<polygon fill="#00bbf9" stroke="#00bbf9" points="377.23,-407.62 373.73,-397.62 370.23,-407.62 377.23,-407.62"/>
</g>
<!-- DR03_5 -->
<g id="node16" class="node">
<title>DR03_5</title>
<ellipse fill="none" stroke="#00bbf9" cx="373.73" cy="-306" rx="39.07" ry="18"/>
<text xml:space="preserve" text-anchor="middle" x="373.73" y="-300.95" font-family="Times New Roman,serif" font-size="14.00" fill="white">Esperar</text>
</g>
<!-- DR03_4&#45;&gt;DR03_5 -->
<g id="edge13" class="edge">
<title>DR03_4&#45;&gt;DR03_5</title>
<path fill="none" stroke="#00bbf9" d="M373.73,-359.7C373.73,-352.41 373.73,-343.73 373.73,-335.54"/>
<polygon fill="#00bbf9" stroke="#00bbf9" points="377.23,-335.62 373.73,-325.62 370.23,-335.62 377.23,-335.62"/>
</g>
<!-- DR03_6 -->
<g id="node17" class="node">
<title>DR03_6</title>
<ellipse fill="none" stroke="#00bbf9" cx="373.73" cy="-234" rx="32.93" ry="18"/>
<text xml:space="preserve" text-anchor="middle" x="373.73" y="-228.95" font-family="Times New Roman,serif" font-size="14.00" fill="white">Regar</text>
</g>
<!-- DR03_5&#45;&gt;DR03_6 -->
<g id="edge14" class="edge">
<title>DR03_5&#45;&gt;DR03_6</title>
<path fill="none" stroke="#00bbf9" d="M373.73,-287.7C373.73,-280.41 373.73,-271.73 373.73,-263.54"/>
<polygon fill="#00bbf9" stroke="#00bbf9" points="377.23,-263.62 373.73,-253.62 370.23,-263.62 377.23,-263.62"/>
</g>
<!-- DR03_7 -->
<g id="node18" class="node">
<title>DR03_7</title>
<ellipse fill="none" stroke="#00bbf9" cx="373.73" cy="-162" rx="54.42" ry="18"/>
<text xml:space="preserve" text-anchor="middle" x="373.73" y="-156.95" font-family="Times New Roman,serif" font-size="14.00" fill="white">Atras H3P2</text>
</g>
<!-- DR03_6&#45;&gt;DR03_7 -->
<g id="edge15" class="edge">
<title>DR03_6&#45;&gt;DR03_7</title>
<path fill="none" stroke="#00bbf9" d="M373.73,-215.7C373.73,-208.41 373.73,-199.73 373.73,-191.54"/>
<polygon fill="#00bbf9" stroke="#00bbf9" points="377.23,-191.62 373.73,-181.62 370.23,-191.62 377.23,-191.62"/>
</g>
<!-- DR03_8 -->
<g id="node19" class="node">
<title>DR03_8</title>
<ellipse fill="none" stroke="#00bbf9" cx="373.73" cy="-90" rx="54.42" ry="18"/>
<text xml:space="preserve" text-anchor="middle" x="373.73" y="-84.95" font-family="Times New Roman,serif" font-size="14.00" fill="white">Atras H3P1</text>
</g>
<!-- DR03_7&#45;&gt;DR03_8 -->
<g id="edge16" class="edge">
<title>DR03_7&#45;&gt;DR03_8</title>
<path fill="none" stroke="#00bbf9" d="M373.73,-143.7C373.73,-136.41 373.73,-127.73 373.73,-119.54"/>
<polygon fill="#00bbf9" stroke="#00bbf9" points="377.23,-119.62 373.73,-109.62 370.23,-119.62 377.23,-119.62"/>
</g>
<!-- DR03_9 -->
<g id="node20" class="node">
<title>DR03_9</title>
<ellipse fill="none" stroke="#00bbf9" cx="373.73" cy="-18" rx="32.93" ry="18"/>
<text xml:space="preserve" text-anchor="middle" x="373.73" y="-12.95" font-family="Times New Roman,serif" font-size="14.00" fill="white">Regar</text>
</g>
<!-- DR03_8&#45;&gt;DR03_9 -->
<g id="edge17" class="edge">
<title>DR03_8&#45;&gt;DR03_9</title>
<path fill="none" stroke="#00bbf9" d="M373.73,-71.7C373.73,-64.41 373.73,-55.73 373.73,-47.54"/>
<polygon fill="#00bbf9" stroke="#00bbf9" points="377.23,-47.62 373.73,-37.62 370.23,-47.62 377.23,-47.62"/>
</g>
<!-- DR04_1 -->
<g id="node21" class="node">
<title>DR04_1</title>
<ellipse fill="none" stroke="#00bbf9" cx="526.73" cy="-594" rx="67.73" ry="18"/>
<text xml:space="preserve" text-anchor="middle" x="526.73" y="-588.95" font-family="Times New Roman,serif" font-size="14.00" fill="white">Adelante H4P1</text>
</g>
<!-- DR04_2 -->
<g id="node22" class="node">
<title>DR04_2</title>
<ellipse fill="none" stroke="#00bbf9" cx="526.73" cy="-522" rx="67.73" ry="18"/>
<text xml:space="preserve" text-anchor="middle" x="526.73" y="-516.95" font-family="Times New Roman,serif" font-size="14.00" fill="white">Adelante H4P2</text>
</g>
<!-- DR04_1&#45;&gt;DR04_2 -->
<g id="edge18" class="edge">
<title>DR04_1&#45;&gt;DR04_2</title>
<path fill="none" stroke="#00bbf9" d="M526.73,-575.7C526.73,-568.41 526.73,-559.73 526.73,-551.54"/>
<polygon fill="#00bbf9" stroke="#00bbf9" points="530.23,-551.62 526.73,-541.62 523.23,-551.62 530.23,-551.62"/>
</g>
<!-- DR04_3 -->
<g id="node23" class="node">
<title>DR04_3</title>
<ellipse fill="none" stroke="#00bbf9" cx="526.73" cy="-450" rx="39.07" ry="18"/>
<text xml:space="preserve" text-anchor="middle" x="526.73" y="-444.95" font-family="Times New Roman,serif" font-size="14.00" fill="white">Esperar</text>
</g>
<!-- DR04_2&#45;&gt;DR04_3 -->
<g id="edge19" class="edge">
<title>DR04_2&#45;&gt;DR04_3</title>
<path fill="none" stroke="#00bbf9" d="M526.73,-503.7C526.73,-496.41 526.73,-487.73 526.73,-479.54"/>
<polygon fill="#00bbf9" stroke="#00bbf9" points="530.23,-479.62 526.73,-469.62 523.23,-479.62 530.23,-479.62"/>
</g>
<!-- DR04_4 -->
<g id="node24" class="node">
<title>DR04_4</title>
<ellipse fill="none" stroke="#00bbf9" cx="526.73" cy="-378" rx="32.93" ry="18"/>
<text xml:space="preserve" text-anchor="middle" x="526.73" y="-372.95" font-family="Times New Roman,serif" font-size="14.00" fill="white">Regar</text>
</g>
<!-- DR04_3&#45;&gt;DR04_4 -->
<g id="edge20" class="edge">
<title>DR04_3&#45;&gt;DR04_4</title>
<path fill="none" stroke="#00bbf9" d="M526.73,-431.7C526.73,-424.41 526.73,-415.73 526.73,-407.54"/>
<polygon fill="#00bbf9" stroke="#00bbf9" points="530.23,-407.62 526.73,-397.62 523.23,-407.62 530.23,-407.62"/>
</g>
</g>
</svg>
